<svg xmlns="http://www.w3.org/2000/svg" xmlns:xlink="http://www.w3.org/1999/xlink" width="500" zoomAndPan="magnify" viewBox="0 0 375 374.999991" height="500" preserveAspectRatio="xMidYMid meet" version="1.0"><defs><g/><clipPath id="be85336390"><path d="M 129.871094 84 L 243 84 L 243 237.507812 L 129.871094 237.507812 Z M 129.871094 84 " clip-rule="nonzero"/></clipPath></defs><path fill="#000000" d="M 234.144531 153.617188 C 231.421875 153.125 227.507812 151.855469 224.847656 151.144531 C 224.25 150.984375 223.644531 150.808594 223.027344 150.71875 C 222.886719 150.699219 222.59375 150.734375 222.230469 150.796875 C 220.871094 151.023438 219.519531 151.070312 218.152344 151.269531 C 216.847656 151.457031 215.554688 151.695312 214.257812 151.921875 C 213.085938 152.128906 208.398438 152.9375 208.101562 152.277344 C 207.621094 151.226562 212.71875 148.703125 214.820312 147.367188 C 217.101562 145.914062 221.332031 144.511719 223.15625 144.707031 C 226.109375 145.023438 229.726562 145.949219 230.503906 146.066406 C 233.996094 146.601562 240.28125 147.273438 241.09375 148.492188 C 241.75 149.484375 240.363281 151.089844 239.5625 151.925781 C 237.890625 153.679688 235.578125 153.875 234.144531 153.617188 " fill-opacity="1" fill-rule="nonzero"/><g clip-path="url(#be85336390)"><path fill="#000000" d="M 130.640625 124.238281 C 131.132812 122.191406 131.808594 120.183594 132.507812 118.183594 C 133.710938 114.746094 133.804688 110.960938 135.371094 107.644531 C 136.644531 104.949219 139.378906 103.046875 141.886719 101.460938 C 147.167969 98.132812 152.699219 95.140625 158.4375 92.589844 C 158.8125 92.484375 159.1875 92.382812 159.566406 92.285156 C 162.828125 91.457031 166.097656 90.828125 169.457031 90.601562 C 169.710938 90.585938 169.699219 90.246094 169.457031 90.21875 C 167.917969 90.035156 166.359375 89.949219 164.800781 89.980469 C 165.648438 89.660156 166.503906 89.351562 167.359375 89.054688 C 168.328125 89.070312 169.351562 88.886719 170.257812 88.855469 C 171.734375 88.800781 173.214844 88.796875 174.6875 88.851562 C 177.621094 88.964844 180.539062 89.269531 183.464844 89.414062 C 183.695312 89.425781 183.695312 89.121094 183.515625 89.046875 C 180.703125 87.917969 177.707031 87.4375 174.6875 87.292969 C 174.136719 87.265625 173.585938 87.253906 173.03125 87.246094 C 173.734375 87.042969 174.441406 86.847656 175.148438 86.660156 C 186.785156 83.5625 198.1875 83.070312 209.769531 86.394531 C 210.136719 86.5 210.507812 86.601562 210.878906 86.699219 C 211.460938 86.914062 212.015625 87.160156 212.636719 87.304688 C 213.355469 87.46875 214.082031 87.609375 214.796875 87.789062 C 216.253906 88.148438 217.675781 88.578125 219.058594 89.160156 C 221.804688 90.316406 224.160156 91.902344 226.460938 93.769531 C 226.609375 93.890625 226.863281 93.738281 226.742188 93.550781 C 225.125 91.070312 222.582031 89.046875 219.890625 87.851562 C 219.363281 87.613281 218.824219 87.398438 218.28125 87.203125 C 218.894531 87.089844 219.503906 86.953125 220.113281 86.820312 C 221.113281 86.769531 222.113281 86.714844 223.128906 86.933594 C 224.707031 87.269531 226.238281 87.910156 227.503906 88.917969 C 227.582031 88.976562 227.722656 88.894531 227.652344 88.804688 C 226.726562 87.597656 225.484375 86.734375 224.042969 86.296875 C 229.734375 86.375 235.835938 90.875 238.566406 95.375 C 242.054688 101.128906 242.171875 111.09375 240.558594 117.464844 C 239.765625 120.609375 236.859375 123.308594 233.738281 124.476562 C 232.808594 124.824219 231.828125 124.917969 230.832031 124.875 C 231.582031 124.519531 232.3125 124.121094 232.984375 123.644531 C 235.515625 121.839844 236.75 118.757812 236.96875 115.726562 C 236.980469 115.542969 236.683594 115.453125 236.605469 115.628906 C 235.480469 118.261719 234.121094 120.910156 231.601562 122.484375 C 230.359375 123.261719 228.96875 123.863281 227.605469 124.433594 C 227.511719 124.414062 227.421875 124.394531 227.328125 124.378906 C 226.605469 124.238281 225.878906 124.105469 225.15625 123.976562 C 227.296875 123.25 229.136719 121.988281 229.652344 119.601562 C 229.683594 119.453125 229.476562 119.351562 229.398438 119.492188 C 228.308594 121.496094 225.683594 122.183594 223.628906 122.722656 C 222.832031 122.933594 222.039062 123.140625 221.246094 123.351562 C 215.816406 122.570312 210.320312 122.183594 204.835938 122.472656 C 197.296875 122.875 190.738281 124.195312 183.324219 124.597656 C 170.703125 125.28125 164.207031 122.667969 158.882812 125.09375 C 162.09375 124.464844 163.03125 125.289062 168.878906 125.9375 C 170.878906 126.160156 172.695312 127.5625 180.335938 126.945312 C 182.757812 126.75 191.453125 125.367188 190.878906 131.597656 C 190.476562 135.953125 188.527344 140.113281 185.691406 143.550781 C 182.761719 147.097656 178.699219 150.300781 178.066406 154.902344 C 177.453125 159.40625 179.664062 164.878906 180.710938 169.246094 C 182.03125 174.726562 186.390625 180.171875 188.441406 185.449219 C 190.78125 191.457031 194.453125 195.933594 201.316406 197.355469 C 208.386719 198.816406 215.296875 197.574219 222.058594 195.523438 C 219.144531 195.855469 216.175781 194.308594 214.59375 191.949219 C 213.316406 190.042969 212.425781 187.011719 213.433594 184.882812 C 213.839844 186.746094 215.417969 188.8125 217.636719 188.691406 C 218.6875 188.632812 219.632812 188.097656 220.519531 187.5625 C 225.914062 184.316406 231.386719 182.390625 237.527344 180.9375 C 238.605469 180.683594 239.921875 180.488281 240.679688 181.265625 C 241.027344 181.617188 241.171875 182.105469 241.273438 182.578125 C 242.308594 187.351562 238.769531 188.96875 234.734375 191.253906 C 231.59375 193.03125 228.542969 195.597656 224.855469 195.675781 C 226.179688 195.894531 227.699219 197.367188 228.992188 197.632812 C 232.867188 198.421875 236.007812 197.910156 239.007812 198.511719 C 239.804688 198.671875 240.714844 201.21875 240.886719 202.003906 C 245.117188 221.230469 240.558594 232.894531 240.09375 233.828125 C 239.40625 235.207031 237.867188 236.011719 236.34375 236.492188 C 235.683594 236.699219 235.011719 236.867188 234.335938 237.007812 C 232.179688 237.207031 230.414062 236.386719 228.664062 235.160156 C 228.542969 235.078125 228.367188 235.246094 228.457031 235.367188 C 229.035156 236.132812 229.691406 236.878906 230.453125 237.453125 C 229.214844 237.488281 227.96875 237.433594 226.722656 237.300781 C 225.316406 236.734375 223.957031 236.03125 222.722656 235.265625 C 220.339844 233.789062 218.328125 231.875 216.734375 229.585938 C 216.65625 229.46875 216.441406 229.539062 216.496094 229.683594 C 217.53125 232.386719 219.410156 234.710938 221.78125 236.351562 C 221.8125 236.375 221.851562 236.398438 221.882812 236.421875 C 218.1875 235.492188 214.617188 234.035156 211.421875 232.46875 C 209.710938 231.632812 208.003906 230.835938 206.292969 230.0625 C 206.082031 229.910156 205.882812 229.765625 205.714844 229.628906 C 204.5625 228.691406 203.421875 227.734375 202.292969 226.761719 C 200.03125 224.804688 197.769531 222.859375 195.476562 220.945312 C 195.335938 220.832031 195.097656 220.980469 195.210938 221.148438 C 196.78125 223.527344 198.636719 225.691406 200.734375 227.613281 C 195.496094 225.351562 190.257812 223.160156 185.019531 220.59375 C 181.964844 219.097656 178.84375 217.550781 176.523438 215.136719 C 173.109375 211.589844 173.605469 207.253906 173.375 202.804688 C 173.078125 197.050781 173.191406 191.269531 174.09375 185.566406 C 174.808594 181.019531 172.9375 176.328125 171.992188 171.824219 C 169.628906 160.550781 163.445312 156.035156 159.464844 154.886719 C 158.070312 154.488281 156.574219 154.101562 155.183594 154.511719 C 151.027344 155.734375 150.636719 160.800781 150.816406 164.25 C 151.027344 168.332031 154.453125 173.519531 153.355469 177.335938 C 151.90625 182.375 143.851562 191.28125 143.25 190.742188 C 141.734375 189.382812 141.445312 187.230469 141.179688 185.261719 C 140.320312 178.859375 138.269531 172.703125 136.160156 166.597656 C 134.785156 162.609375 132.992188 158.734375 132.027344 154.628906 C 131.003906 150.277344 131.359375 145.773438 130.433594 141.40625 C 129.621094 137.554688 129.773438 133.410156 129.890625 129.503906 C 129.945312 127.710938 130.226562 125.960938 130.640625 124.238281 " fill-opacity="1" fill-rule="nonzero"/></g><g fill="#000000" fill-opacity="1"><g transform="translate(98.970254, 263.775312)"><g><path d="M 9.15625 0.296875 C 6.664062 0.296875 4.867188 -0.351562 3.765625 -1.65625 C 2.671875 -2.957031 2.125 -4.867188 2.125 -7.390625 L 2.125 -13 L 0.4375 -13 L 0.4375 -16.703125 L 9.546875 -16.703125 L 9.546875 -13 L 8 -13 L 8 -5.984375 C 8 -5.285156 8.164062 -4.71875 8.5 -4.28125 C 8.84375 -3.851562 9.367188 -3.640625 10.078125 -3.640625 C 10.679688 -3.640625 11.160156 -3.816406 11.515625 -4.171875 C 11.867188 -4.523438 12.046875 -5.015625 12.046875 -5.640625 L 12.046875 -13 L 10.3125 -13 L 10.3125 -16.703125 L 17.171875 -16.703125 L 17.171875 -13 L 15.5625 -13 L 15.5625 -5.78125 C 15.5625 -3.78125 14.972656 -2.265625 13.796875 -1.234375 C 12.628906 -0.210938 11.082031 0.296875 9.15625 0.296875 Z M 9.15625 0.296875 "/></g></g></g><g fill="#000000" fill-opacity="1"><g transform="translate(118.524901, 263.775312)"><g><path d="M 0.859375 0 L 0.859375 -3.765625 L 2.5625 -3.765625 L 2.5625 -13.03125 L 0.90625 -13.03125 L 0.90625 -16.734375 L 8.625 -16.734375 L 13.84375 -6.796875 L 13.84375 -13 L 12.171875 -13 L 12.171875 -16.703125 L 18.859375 -16.703125 L 18.859375 -13 L 17.203125 -13 L 17.203125 0 L 10.84375 0 L 5.875 -9.21875 L 5.875 -3.765625 L 7.546875 -3.765625 L 7.546875 0 Z M 0.859375 0 "/></g></g></g><g fill="#000000" fill-opacity="1"><g transform="translate(139.755568, 263.775312)"><g><path d="M 0.671875 0 L 0.671875 -3.703125 L 2.6875 -3.703125 L 2.6875 -13 L 0.671875 -13 L 0.671875 -16.703125 L 9.671875 -16.703125 L 12.921875 -8.671875 L 16.125 -16.703125 L 24.53125 -16.703125 L 24.53125 -13 L 22.515625 -13 L 22.515625 -3.703125 L 24.53125 -3.703125 L 24.53125 0 L 15.78125 0 L 15.78125 -3.703125 L 17.140625 -3.703125 L 17.140625 -9.9375 L 13.4375 0 L 10.40625 0 L 6.046875 -10.171875 L 6.046875 -3.703125 L 7.71875 -3.703125 L 7.71875 0 Z M 0.671875 0 "/></g></g></g><g fill="#000000" fill-opacity="1"><g transform="translate(166.444055, 263.775312)"><g><path d="M 0.34375 0 L 0.34375 -3.703125 L 2 -3.703125 L 4.875 -13 L 2.6875 -13 L 2.6875 -16.703125 L 13.09375 -16.703125 L 16.8125 -3.703125 L 18.46875 -3.703125 L 18.46875 0 L 9.078125 0 L 9.078125 -3.703125 L 10.421875 -3.703125 L 9.96875 -5.484375 L 6.1875 -5.484375 L 5.71875 -3.703125 L 7.71875 -3.703125 L 7.71875 0 Z M 6.734375 -8.015625 L 9.484375 -8.015625 L 8.25 -13.140625 Z M 6.734375 -8.015625 "/></g></g></g><g fill="#000000" fill-opacity="1"><g transform="translate(186.707793, 263.775312)"><g><path d="M 8.671875 0.296875 C 7.804688 0.296875 7.117188 0.195312 6.609375 0 C 6.097656 -0.1875 5.550781 -0.507812 4.96875 -0.96875 L 4.59375 0 L 1.203125 0 L 1.203125 -5.109375 L 4.578125 -5.109375 C 4.796875 -4.523438 5.128906 -4.109375 5.578125 -3.859375 C 6.023438 -3.617188 6.582031 -3.5 7.25 -3.5 C 7.644531 -3.5 7.984375 -3.582031 8.265625 -3.75 C 8.554688 -3.914062 8.703125 -4.132812 8.703125 -4.40625 C 8.703125 -4.75 8.554688 -5.003906 8.265625 -5.171875 C 7.972656 -5.347656 7.5625 -5.507812 7.03125 -5.65625 C 5.6875 -6.03125 4.578125 -6.429688 3.703125 -6.859375 C 2.835938 -7.285156 2.140625 -7.898438 1.609375 -8.703125 C 1.078125 -9.503906 0.8125 -10.566406 0.8125 -11.890625 C 0.8125 -12.910156 1.03125 -13.804688 1.46875 -14.578125 C 1.90625 -15.347656 2.53125 -15.945312 3.34375 -16.375 C 4.164062 -16.8125 5.128906 -17.03125 6.234375 -17.03125 C 7.578125 -17.03125 8.644531 -16.597656 9.4375 -15.734375 L 9.96875 -16.734375 L 12.984375 -16.734375 L 12.984375 -11.71875 L 9.765625 -11.71875 C 9.460938 -12.34375 9.128906 -12.773438 8.765625 -13.015625 C 8.398438 -13.265625 7.898438 -13.390625 7.265625 -13.390625 C 6.773438 -13.390625 6.394531 -13.300781 6.125 -13.125 C 5.863281 -12.957031 5.734375 -12.722656 5.734375 -12.421875 C 5.734375 -12.097656 5.921875 -11.84375 6.296875 -11.65625 C 6.679688 -11.476562 7.226562 -11.3125 7.9375 -11.15625 C 9.175781 -10.875 10.226562 -10.519531 11.09375 -10.09375 C 11.96875 -9.664062 12.664062 -9.0625 13.1875 -8.28125 C 13.707031 -7.5 13.96875 -6.492188 13.96875 -5.265625 C 13.96875 -4.222656 13.75 -3.273438 13.3125 -2.421875 C 12.875 -1.578125 12.25 -0.910156 11.4375 -0.421875 C 10.632812 0.0546875 9.710938 0.296875 8.671875 0.296875 Z M 8.671875 0.296875 "/></g></g></g><g fill="#000000" fill-opacity="1"><g transform="translate(203.275689, 263.775312)"><g><path d="M 1.359375 -3.703125 L 3.03125 -3.703125 L 3.03125 -13 L 1.359375 -13 L 1.359375 -16.703125 L 9.734375 -16.703125 L 9.734375 -13 L 8.40625 -13 L 8.40625 -9.203125 L 11.1875 -13 L 11.1875 -16.703125 L 17.71875 -16.703125 L 17.71875 -13 L 16.28125 -13 L 12.9375 -8.96875 L 12.9375 -8.8125 C 14.070312 -8.8125 14.960938 -8.617188 15.609375 -8.234375 C 16.253906 -7.847656 16.578125 -7.175781 16.578125 -6.21875 L 16.578125 -4.515625 C 16.578125 -4.296875 16.632812 -4.101562 16.75 -3.9375 C 16.875 -3.78125 17.046875 -3.703125 17.265625 -3.703125 L 18.46875 -3.703125 L 18.46875 0 L 14.625 0 C 12.269531 0 11.09375 -1.070312 11.09375 -3.21875 L 11.09375 -5.046875 C 11.09375 -5.410156 10.976562 -5.765625 10.75 -6.109375 C 10.519531 -6.453125 10.25 -6.625 9.9375 -6.625 L 8.40625 -6.625 L 8.40625 -3.703125 L 10.078125 -3.703125 L 10.078125 0 L 1.359375 0 Z M 1.359375 -3.703125 "/></g></g></g><g fill="#000000" fill-opacity="1"><g transform="translate(224.119581, 263.775312)"><g><path d="M 1.359375 0 L 1.359375 -3.703125 L 3.03125 -3.703125 L 3.03125 -13 L 1.359375 -13 L 1.359375 -16.703125 L 10.078125 -16.703125 L 10.078125 -13 L 8.40625 -13 L 8.40625 -3.703125 L 10.078125 -3.703125 L 10.078125 0 Z M 1.359375 0 "/></g></g></g><g fill="#000000" fill-opacity="1"><g transform="translate(236.712296, 263.775312)"><g><path d="M 0.859375 0 L 0.859375 -3.765625 L 2.5625 -3.765625 L 2.5625 -13.03125 L 0.90625 -13.03125 L 0.90625 -16.734375 L 8.625 -16.734375 L 13.84375 -6.796875 L 13.84375 -13 L 12.171875 -13 L 12.171875 -16.703125 L 18.859375 -16.703125 L 18.859375 -13 L 17.203125 -13 L 17.203125 0 L 10.84375 0 L 5.875 -9.21875 L 5.875 -3.765625 L 7.546875 -3.765625 L 7.546875 0 Z M 0.859375 0 "/></g></g></g><g fill="#000000" fill-opacity="1"><g transform="translate(257.942965, 263.775312)"><g><path d="M 10 0.296875 C 8.289062 0.296875 6.726562 -0.015625 5.3125 -0.640625 C 3.90625 -1.273438 2.78125 -2.257812 1.9375 -3.59375 C 1.09375 -4.925781 0.671875 -6.601562 0.671875 -8.625 C 0.671875 -10.226562 1.003906 -11.664062 1.671875 -12.9375 C 2.335938 -14.21875 3.300781 -15.21875 4.5625 -15.9375 C 5.832031 -16.664062 7.328125 -17.03125 9.046875 -17.03125 C 9.773438 -17.03125 10.484375 -16.90625 11.171875 -16.65625 C 11.867188 -16.414062 12.414062 -16.0625 12.8125 -15.59375 L 13.15625 -16.703125 L 16.796875 -16.703125 L 16.796875 -10.53125 L 13.546875 -10.53125 C 13.328125 -11.425781 12.910156 -12.097656 12.296875 -12.546875 C 11.679688 -12.992188 11.035156 -13.21875 10.359375 -13.21875 C 9.242188 -13.21875 8.359375 -12.804688 7.703125 -11.984375 C 7.054688 -11.171875 6.734375 -10.050781 6.734375 -8.625 C 6.734375 -7.175781 7.054688 -6.039062 7.703125 -5.21875 C 8.347656 -4.394531 9.253906 -3.984375 10.421875 -3.984375 C 10.722656 -3.984375 11.023438 -4.007812 11.328125 -4.0625 C 11.628906 -4.125 11.875 -4.1875 12.0625 -4.25 C 12.25 -4.3125 12.367188 -4.347656 12.421875 -4.359375 L 12.421875 -5.84375 L 10.40625 -5.84375 L 10.40625 -8.96875 L 17.140625 -8.96875 L 17.140625 -1.46875 C 16.054688 -0.894531 14.898438 -0.457031 13.671875 -0.15625 C 12.441406 0.144531 11.21875 0.296875 10 0.296875 Z M 10 0.296875 "/></g></g></g><g fill="#000000" fill-opacity="1"><g transform="translate(87.082091, 286.178372)"><g><path d="M 0.671875 0 L 0.671875 -3.703125 L 2.6875 -3.703125 L 2.6875 -13 L 0.671875 -13 L 0.671875 -16.703125 L 9.671875 -16.703125 L 12.921875 -8.671875 L 16.125 -16.703125 L 24.53125 -16.703125 L 24.53125 -13 L 22.515625 -13 L 22.515625 -3.703125 L 24.53125 -3.703125 L 24.53125 0 L 15.78125 0 L 15.78125 -3.703125 L 17.140625 -3.703125 L 17.140625 -9.9375 L 13.4375 0 L 10.40625 0 L 6.046875 -10.171875 L 6.046875 -3.703125 L 7.71875 -3.703125 L 7.71875 0 Z M 0.671875 0 "/></g></g></g><g fill="#000000" fill-opacity="1"><g transform="translate(113.77058, 286.178372)"><g><path d="M 0.34375 0 L 0.34375 -3.703125 L 2 -3.703125 L 4.875 -13 L 2.6875 -13 L 2.6875 -16.703125 L 13.09375 -16.703125 L 16.8125 -3.703125 L 18.46875 -3.703125 L 18.46875 0 L 9.078125 0 L 9.078125 -3.703125 L 10.421875 -3.703125 L 9.96875 -5.484375 L 6.1875 -5.484375 L 5.71875 -3.703125 L 7.71875 -3.703125 L 7.71875 0 Z M 6.734375 -8.015625 L 9.484375 -8.015625 L 8.25 -13.140625 Z M 6.734375 -8.015625 "/></g></g></g><g fill="#000000" fill-opacity="1"><g transform="translate(134.034316, 286.178372)"><g><path d="M 8.671875 0.296875 C 7.804688 0.296875 7.117188 0.195312 6.609375 0 C 6.097656 -0.1875 5.550781 -0.507812 4.96875 -0.96875 L 4.59375 0 L 1.203125 0 L 1.203125 -5.109375 L 4.578125 -5.109375 C 4.796875 -4.523438 5.128906 -4.109375 5.578125 -3.859375 C 6.023438 -3.617188 6.582031 -3.5 7.25 -3.5 C 7.644531 -3.5 7.984375 -3.582031 8.265625 -3.75 C 8.554688 -3.914062 8.703125 -4.132812 8.703125 -4.40625 C 8.703125 -4.75 8.554688 -5.003906 8.265625 -5.171875 C 7.972656 -5.347656 7.5625 -5.507812 7.03125 -5.65625 C 5.6875 -6.03125 4.578125 -6.429688 3.703125 -6.859375 C 2.835938 -7.285156 2.140625 -7.898438 1.609375 -8.703125 C 1.078125 -9.503906 0.8125 -10.566406 0.8125 -11.890625 C 0.8125 -12.910156 1.03125 -13.804688 1.46875 -14.578125 C 1.90625 -15.347656 2.53125 -15.945312 3.34375 -16.375 C 4.164062 -16.8125 5.128906 -17.03125 6.234375 -17.03125 C 7.578125 -17.03125 8.644531 -16.597656 9.4375 -15.734375 L 9.96875 -16.734375 L 12.984375 -16.734375 L 12.984375 -11.71875 L 9.765625 -11.71875 C 9.460938 -12.34375 9.128906 -12.773438 8.765625 -13.015625 C 8.398438 -13.265625 7.898438 -13.390625 7.265625 -13.390625 C 6.773438 -13.390625 6.394531 -13.300781 6.125 -13.125 C 5.863281 -12.957031 5.734375 -12.722656 5.734375 -12.421875 C 5.734375 -12.097656 5.921875 -11.84375 6.296875 -11.65625 C 6.679688 -11.476562 7.226562 -11.3125 7.9375 -11.15625 C 9.175781 -10.875 10.226562 -10.519531 11.09375 -10.09375 C 11.96875 -9.664062 12.664062 -9.0625 13.1875 -8.28125 C 13.707031 -7.5 13.96875 -6.492188 13.96875 -5.265625 C 13.96875 -4.222656 13.75 -3.273438 13.3125 -2.421875 C 12.875 -1.578125 12.25 -0.910156 11.4375 -0.421875 C 10.632812 0.0546875 9.710938 0.296875 8.671875 0.296875 Z M 8.671875 0.296875 "/></g></g></g><g fill="#000000" fill-opacity="1"><g transform="translate(150.602208, 286.178372)"><g><path d="M 9.140625 0.296875 C 7.585938 0.296875 6.171875 -0.0234375 4.890625 -0.671875 C 3.609375 -1.328125 2.582031 -2.3125 1.8125 -3.625 C 1.050781 -4.9375 0.671875 -6.546875 0.671875 -8.453125 C 0.671875 -10.054688 0.957031 -11.503906 1.53125 -12.796875 C 2.113281 -14.097656 2.96875 -15.128906 4.09375 -15.890625 C 5.21875 -16.648438 6.578125 -17.03125 8.171875 -17.03125 C 8.984375 -17.03125 9.710938 -16.835938 10.359375 -16.453125 C 11.003906 -16.078125 11.472656 -15.59375 11.765625 -15 L 12.1875 -16.703125 L 15.453125 -16.703125 L 15.453125 -9.84375 L 12.109375 -9.84375 L 12.109375 -10.1875 C 12.109375 -11.082031 11.898438 -11.8125 11.484375 -12.375 C 11.078125 -12.9375 10.472656 -13.21875 9.671875 -13.21875 C 9.128906 -13.21875 8.628906 -13.007812 8.171875 -12.59375 C 7.722656 -12.175781 7.367188 -11.628906 7.109375 -10.953125 C 6.859375 -10.285156 6.734375 -9.59375 6.734375 -8.875 C 6.734375 -7.46875 7.082031 -6.367188 7.78125 -5.578125 C 8.488281 -4.785156 9.445312 -4.390625 10.65625 -4.390625 C 11.519531 -4.390625 12.320312 -4.53125 13.0625 -4.8125 C 13.800781 -5.101562 14.40625 -5.410156 14.875 -5.734375 L 15.109375 -5.546875 L 15.109375 -1.078125 C 14.222656 -0.554688 13.285156 -0.195312 12.296875 0 C 11.304688 0.195312 10.253906 0.296875 9.140625 0.296875 Z M 9.140625 0.296875 "/></g></g></g><g fill="#000000" fill-opacity="1"><g transform="translate(168.631249, 286.178372)"><g><path d="M 9.15625 0.296875 C 6.664062 0.296875 4.867188 -0.351562 3.765625 -1.65625 C 2.671875 -2.957031 2.125 -4.867188 2.125 -7.390625 L 2.125 -13 L 0.4375 -13 L 0.4375 -16.703125 L 9.546875 -16.703125 L 9.546875 -13 L 8 -13 L 8 -5.984375 C 8 -5.285156 8.164062 -4.71875 8.5 -4.28125 C 8.84375 -3.851562 9.367188 -3.640625 10.078125 -3.640625 C 10.679688 -3.640625 11.160156 -3.816406 11.515625 -4.171875 C 11.867188 -4.523438 12.046875 -5.015625 12.046875 -5.640625 L 12.046875 -13 L 10.3125 -13 L 10.3125 -16.703125 L 17.171875 -16.703125 L 17.171875 -13 L 15.5625 -13 L 15.5625 -5.78125 C 15.5625 -3.78125 14.972656 -2.265625 13.796875 -1.234375 C 12.628906 -0.210938 11.082031 0.296875 9.15625 0.296875 Z M 9.15625 0.296875 "/></g></g></g><g fill="#000000" fill-opacity="1"><g transform="translate(188.185898, 286.178372)"><g><path d="M 1.359375 0 L 1.359375 -3.765625 L 3.03125 -3.765625 L 3.03125 -13 L 1.359375 -13 L 1.359375 -16.703125 L 10.078125 -16.703125 L 10.078125 -13 L 8.40625 -13 L 8.40625 -3.765625 L 11.09375 -3.765625 L 12.109375 -7.4375 L 14.765625 -7.4375 L 14.765625 0 Z M 1.359375 0 "/></g></g></g><g fill="#000000" fill-opacity="1"><g transform="translate(205.05461, 286.178372)"><g><path d="M 1.359375 0 L 1.359375 -3.703125 L 3.03125 -3.703125 L 3.03125 -13 L 1.359375 -13 L 1.359375 -16.703125 L 10.078125 -16.703125 L 10.078125 -13 L 8.40625 -13 L 8.40625 -3.703125 L 10.078125 -3.703125 L 10.078125 0 Z M 1.359375 0 "/></g></g></g><g fill="#000000" fill-opacity="1"><g transform="translate(217.647325, 286.178372)"><g><path d="M 0.859375 0 L 0.859375 -3.765625 L 2.5625 -3.765625 L 2.5625 -13.03125 L 0.90625 -13.03125 L 0.90625 -16.734375 L 8.625 -16.734375 L 13.84375 -6.796875 L 13.84375 -13 L 12.171875 -13 L 12.171875 -16.703125 L 18.859375 -16.703125 L 18.859375 -13 L 17.203125 -13 L 17.203125 0 L 10.84375 0 L 5.875 -9.21875 L 5.875 -3.765625 L 7.546875 -3.765625 L 7.546875 0 Z M 0.859375 0 "/></g></g></g><g fill="#000000" fill-opacity="1"><g transform="translate(238.877994, 286.178372)"><g><path d="M 1.359375 0 L 1.359375 -3.703125 L 3.03125 -3.703125 L 3.03125 -13 L 1.359375 -13 L 1.359375 -16.703125 L 10.078125 -16.703125 L 10.078125 -13 L 8.40625 -13 L 8.40625 -3.703125 L 10.078125 -3.703125 L 10.078125 0 Z M 1.359375 0 "/></g></g></g><g fill="#000000" fill-opacity="1"><g transform="translate(251.470709, 286.178372)"><g><path d="M 3.828125 0 L 3.828125 -3.78125 L 5.546875 -3.78125 L 5.546875 -13 L 4.0625 -13 L 3.609375 -10.125 L 0.671875 -10.125 L 0.671875 -16.703125 L 16.390625 -16.703125 L 16.390625 -10.125 L 13.4375 -10.125 L 12.984375 -13 L 11.453125 -13 L 11.453125 -3.78125 L 13.171875 -3.78125 L 13.171875 0 Z M 3.828125 0 "/></g></g></g><g fill="#000000" fill-opacity="1"><g transform="translate(270.445197, 286.178372)"><g><path d="M 4.390625 0 L 4.390625 -3.765625 L 6 -3.765625 L 6 -6.84375 L 1.59375 -13 L 0.40625 -13 L 0.40625 -16.703125 L 9.359375 -16.703125 L 9.359375 -13 L 8.40625 -13 L 10.3125 -10.21875 L 11.828125 -13 L 10.296875 -13 L 10.296875 -16.703125 L 16.984375 -16.703125 L 16.984375 -13 L 15.09375 -13 L 11.84375 -7.390625 L 11.84375 -3.765625 L 13.5 -3.765625 L 13.5 0 Z M 4.390625 0 "/></g></g></g></svg>