<svg xmlns="http://www.w3.org/2000/svg" xmlns:xlink="http://www.w3.org/1999/xlink" width="500" zoomAndPan="magnify" viewBox="0 0 375 374.999991" height="500" preserveAspectRatio="xMidYMid meet" version="1.0"><defs><g/><clipPath id="f8eac55ecb"><path d="M 13.550781 121 L 112 121 L 112 254.644531 L 13.550781 254.644531 Z M 13.550781 121 " clip-rule="nonzero"/></clipPath></defs><path fill="#ffffff" d="M 104.3125 181.75 C 101.941406 181.324219 98.535156 180.222656 96.21875 179.601562 C 95.699219 179.464844 95.171875 179.308594 94.632812 179.230469 C 94.515625 179.214844 94.261719 179.246094 93.941406 179.300781 C 92.757812 179.5 91.582031 179.539062 90.394531 179.710938 C 89.257812 179.875 88.136719 180.082031 87.007812 180.277344 C 85.984375 180.457031 81.910156 181.160156 81.648438 180.585938 C 81.230469 179.675781 85.667969 177.480469 87.496094 176.320312 C 89.480469 175.058594 93.164062 173.839844 94.746094 174.007812 C 97.316406 174.28125 100.464844 175.089844 101.140625 175.191406 C 104.179688 175.652344 109.652344 176.238281 110.355469 177.296875 C 110.925781 178.160156 109.71875 179.554688 109.023438 180.28125 C 107.566406 181.804688 105.558594 181.976562 104.3125 181.75 " fill-opacity="1" fill-rule="nonzero"/><g clip-path="url(#f8eac55ecb)"><path fill="#ffffff" d="M 14.246094 156.222656 C 14.675781 154.445312 15.265625 152.703125 15.875 150.960938 C 16.921875 147.976562 17 144.6875 18.363281 141.808594 C 19.46875 139.460938 21.851562 137.808594 24.035156 136.433594 C 28.628906 133.539062 33.441406 130.941406 38.433594 128.726562 C 38.761719 128.632812 39.085938 128.546875 39.417969 128.460938 C 42.253906 127.738281 45.097656 127.195312 48.023438 127 C 48.242188 126.984375 48.234375 126.6875 48.023438 126.664062 C 46.683594 126.503906 45.328125 126.429688 43.972656 126.457031 C 44.710938 126.179688 45.453125 125.910156 46.195312 125.652344 C 47.039062 125.667969 47.929688 125.507812 48.71875 125.480469 C 50.003906 125.429688 51.292969 125.429688 52.574219 125.476562 C 55.125 125.574219 57.664062 125.839844 60.214844 125.964844 C 60.414062 125.976562 60.414062 125.710938 60.257812 125.648438 C 57.808594 124.667969 55.199219 124.246094 52.574219 124.121094 C 52.09375 124.097656 51.613281 124.089844 51.132812 124.082031 C 51.746094 123.90625 52.359375 123.734375 52.976562 123.570312 C 63.101562 120.882812 73.023438 120.453125 83.101562 123.339844 C 83.417969 123.433594 83.742188 123.523438 84.066406 123.605469 C 84.570312 123.792969 85.054688 124.007812 85.59375 124.132812 C 86.222656 124.273438 86.851562 124.398438 87.476562 124.550781 C 88.742188 124.867188 89.980469 125.238281 91.179688 125.746094 C 93.574219 126.75 95.621094 128.128906 97.625 129.75 C 97.753906 129.855469 97.972656 129.722656 97.871094 129.5625 C 96.460938 127.402344 94.246094 125.644531 91.90625 124.605469 C 91.445312 124.402344 90.980469 124.214844 90.503906 124.042969 C 91.039062 123.949219 91.570312 123.828125 92.101562 123.710938 C 92.96875 123.667969 93.839844 123.621094 94.726562 123.808594 C 96.097656 124.101562 97.429688 124.660156 98.53125 125.535156 C 98.597656 125.585938 98.722656 125.515625 98.660156 125.433594 C 97.855469 124.386719 96.773438 123.640625 95.519531 123.257812 C 100.472656 123.328125 105.78125 127.234375 108.15625 131.148438 C 111.191406 136.144531 111.292969 144.804688 109.890625 150.339844 C 109.199219 153.070312 106.671875 155.414062 103.957031 156.429688 C 103.148438 156.734375 102.292969 156.8125 101.425781 156.777344 C 102.082031 156.46875 102.71875 156.121094 103.300781 155.707031 C 105.503906 154.140625 106.574219 151.460938 106.765625 148.828125 C 106.777344 148.667969 106.519531 148.589844 106.453125 148.742188 C 105.472656 151.03125 104.289062 153.332031 102.097656 154.699219 C 101.015625 155.375 99.804688 155.898438 98.621094 156.390625 C 98.539062 156.375 98.457031 156.359375 98.378906 156.34375 C 97.75 156.222656 97.117188 156.109375 96.488281 155.996094 C 98.351562 155.367188 99.953125 154.265625 100.398438 152.195312 C 100.429688 152.066406 100.25 151.980469 100.179688 152.101562 C 99.230469 153.84375 96.945312 154.441406 95.160156 154.910156 C 94.46875 155.089844 93.777344 155.269531 93.085938 155.453125 C 88.363281 154.773438 83.578125 154.4375 78.808594 154.691406 C 72.246094 155.039062 66.542969 156.183594 60.089844 156.535156 C 49.109375 157.128906 43.457031 154.859375 38.820312 156.96875 C 41.617188 156.421875 42.429688 157.136719 47.519531 157.699219 C 49.261719 157.890625 50.84375 159.113281 57.488281 158.574219 C 59.597656 158.40625 67.160156 157.203125 66.664062 162.617188 C 66.3125 166.402344 64.613281 170.019531 62.148438 173.003906 C 59.601562 176.085938 56.0625 178.871094 55.515625 182.867188 C 54.980469 186.78125 56.902344 191.535156 57.816406 195.328125 C 58.964844 200.09375 62.757812 204.824219 64.542969 209.410156 C 66.578125 214.628906 69.773438 218.515625 75.746094 219.753906 C 81.894531 221.023438 87.910156 219.945312 93.792969 218.164062 C 91.257812 218.449219 88.675781 217.105469 87.296875 215.058594 C 86.183594 213.398438 85.410156 210.765625 86.289062 208.917969 C 86.640625 210.535156 88.011719 212.332031 89.945312 212.226562 C 90.859375 212.175781 91.679688 211.710938 92.453125 211.246094 C 97.148438 208.421875 101.910156 206.753906 107.253906 205.488281 C 108.191406 205.265625 109.335938 205.097656 109.996094 205.773438 C 110.296875 206.078125 110.421875 206.503906 110.511719 206.914062 C 111.414062 211.0625 108.332031 212.464844 104.824219 214.453125 C 102.089844 215.996094 99.4375 218.226562 96.226562 218.292969 C 97.378906 218.484375 98.699219 219.765625 99.828125 219.996094 C 103.199219 220.679688 105.929688 220.238281 108.542969 220.761719 C 109.234375 220.898438 110.027344 223.109375 110.175781 223.792969 C 113.855469 240.5 109.890625 250.632812 109.488281 251.445312 C 108.886719 252.644531 107.550781 253.34375 106.222656 253.757812 C 105.648438 253.941406 105.0625 254.085938 104.476562 254.207031 C 102.597656 254.378906 101.0625 253.667969 99.539062 252.601562 C 99.433594 252.53125 99.285156 252.675781 99.359375 252.78125 C 99.863281 253.449219 100.433594 254.097656 101.097656 254.59375 C 100.019531 254.625 98.933594 254.578125 97.851562 254.460938 C 96.628906 253.96875 95.445312 253.355469 94.371094 252.691406 C 92.296875 251.410156 90.546875 249.746094 89.160156 247.757812 C 89.09375 247.65625 88.902344 247.714844 88.953125 247.84375 C 89.851562 250.191406 91.488281 252.210938 93.550781 253.636719 C 93.582031 253.65625 93.613281 253.679688 93.640625 253.699219 C 90.425781 252.890625 87.316406 251.625 84.535156 250.261719 C 83.050781 249.535156 81.5625 248.84375 80.074219 248.171875 C 79.890625 248.039062 79.71875 247.914062 79.574219 247.796875 C 78.566406 246.980469 77.578125 246.152344 76.597656 245.304688 C 74.628906 243.605469 72.660156 241.914062 70.660156 240.25 C 70.542969 240.152344 70.335938 240.28125 70.433594 240.429688 C 71.796875 242.492188 73.414062 244.375 75.238281 246.042969 C 70.679688 244.078125 66.121094 242.175781 61.5625 239.945312 C 58.90625 238.644531 56.191406 237.300781 54.171875 235.207031 C 51.203125 232.121094 51.632812 228.355469 51.433594 224.488281 C 51.171875 219.488281 51.273438 214.464844 52.058594 209.507812 C 52.679688 205.558594 51.050781 201.484375 50.230469 197.570312 C 48.175781 187.773438 42.792969 183.851562 39.328125 182.855469 C 38.117188 182.507812 36.8125 182.171875 35.601562 182.527344 C 31.988281 183.589844 31.644531 187.992188 31.800781 190.988281 C 31.988281 194.535156 34.964844 199.042969 34.011719 202.359375 C 32.753906 206.738281 25.746094 214.476562 25.21875 214.007812 C 23.902344 212.824219 23.648438 210.957031 23.417969 209.246094 C 22.667969 203.683594 20.886719 198.335938 19.050781 193.027344 C 17.855469 189.5625 16.292969 186.199219 15.453125 182.628906 C 14.5625 178.847656 14.871094 174.933594 14.070312 171.140625 C 13.359375 167.792969 13.496094 164.191406 13.59375 160.800781 C 13.640625 159.242188 13.886719 157.722656 14.246094 156.222656 " fill-opacity="1" fill-rule="nonzero"/></g><g fill="#ffffff" fill-opacity="1"><g transform="translate(180.852891, 183.750106)"><g><path d="M 7.96875 0.265625 C 5.800781 0.265625 4.238281 -0.300781 3.28125 -1.4375 C 2.332031 -2.570312 1.859375 -4.238281 1.859375 -6.4375 L 1.859375 -11.328125 L 0.375 -11.328125 L 0.375 -14.546875 L 8.3125 -14.546875 L 8.3125 -11.328125 L 6.96875 -11.328125 L 6.96875 -5.203125 C 6.96875 -4.609375 7.113281 -4.117188 7.40625 -3.734375 C 7.695312 -3.347656 8.15625 -3.15625 8.78125 -3.15625 C 9.300781 -3.15625 9.710938 -3.3125 10.015625 -3.625 C 10.328125 -3.9375 10.484375 -4.363281 10.484375 -4.90625 L 10.484375 -11.328125 L 8.984375 -11.328125 L 8.984375 -14.546875 L 14.953125 -14.546875 L 14.953125 -11.328125 L 13.546875 -11.328125 L 13.546875 -5.03125 C 13.546875 -3.289062 13.035156 -1.972656 12.015625 -1.078125 C 10.992188 -0.179688 9.644531 0.265625 7.96875 0.265625 Z M 7.96875 0.265625 "/></g></g></g><g fill="#ffffff" fill-opacity="1"><g transform="translate(197.873583, 183.750106)"><g><path d="M 0.75 0 L 0.75 -3.28125 L 2.234375 -3.28125 L 2.234375 -11.34375 L 0.78125 -11.34375 L 0.78125 -14.5625 L 7.5 -14.5625 L 12.0625 -5.921875 L 12.0625 -11.328125 L 10.59375 -11.328125 L 10.59375 -14.546875 L 16.421875 -14.546875 L 16.421875 -11.328125 L 14.96875 -11.328125 L 14.96875 0 L 9.4375 0 L 5.109375 -8.03125 L 5.109375 -3.28125 L 6.5625 -3.28125 L 6.5625 0 Z M 0.75 0 "/></g></g></g><g fill="#ffffff" fill-opacity="1"><g transform="translate(216.353111, 183.750106)"><g><path d="M 0.578125 0 L 0.578125 -3.21875 L 2.34375 -3.21875 L 2.34375 -11.328125 L 0.578125 -11.328125 L 0.578125 -14.546875 L 8.421875 -14.546875 L 11.25 -7.546875 L 14.03125 -14.546875 L 21.359375 -14.546875 L 21.359375 -11.328125 L 19.59375 -11.328125 L 19.59375 -3.21875 L 21.359375 -3.21875 L 21.359375 0 L 13.734375 0 L 13.734375 -3.21875 L 14.921875 -3.21875 L 14.921875 -8.640625 L 11.703125 0 L 9.0625 0 L 5.265625 -8.859375 L 5.265625 -3.21875 L 6.71875 -3.21875 L 6.71875 0 Z M 0.578125 0 "/></g></g></g><g fill="#ffffff" fill-opacity="1"><g transform="translate(239.583216, 183.750106)"><g><path d="M 0.296875 0 L 0.296875 -3.21875 L 1.734375 -3.21875 L 4.25 -11.328125 L 2.34375 -11.328125 L 2.34375 -14.546875 L 11.40625 -14.546875 L 14.640625 -3.21875 L 16.078125 -3.21875 L 16.078125 0 L 7.90625 0 L 7.90625 -3.21875 L 9.078125 -3.21875 L 8.6875 -4.765625 L 5.390625 -4.765625 L 4.984375 -3.21875 L 6.71875 -3.21875 L 6.71875 0 Z M 5.859375 -6.984375 L 8.25 -6.984375 L 7.1875 -11.4375 Z M 5.859375 -6.984375 "/></g></g></g><g fill="#ffffff" fill-opacity="1"><g transform="translate(257.221113, 183.750106)"><g><path d="M 7.546875 0.265625 C 6.796875 0.265625 6.195312 0.175781 5.75 0 C 5.3125 -0.164062 4.835938 -0.445312 4.328125 -0.84375 L 4 0 L 1.046875 0 L 1.046875 -4.453125 L 3.984375 -4.453125 C 4.171875 -3.941406 4.460938 -3.578125 4.859375 -3.359375 C 5.253906 -3.148438 5.738281 -3.046875 6.3125 -3.046875 C 6.65625 -3.046875 6.953125 -3.117188 7.203125 -3.265625 C 7.453125 -3.410156 7.578125 -3.601562 7.578125 -3.84375 C 7.578125 -4.132812 7.445312 -4.351562 7.1875 -4.5 C 6.9375 -4.65625 6.582031 -4.796875 6.125 -4.921875 C 4.945312 -5.242188 3.976562 -5.59375 3.21875 -5.96875 C 2.46875 -6.34375 1.863281 -6.878906 1.40625 -7.578125 C 0.945312 -8.273438 0.71875 -9.195312 0.71875 -10.34375 C 0.71875 -11.238281 0.90625 -12.019531 1.28125 -12.6875 C 1.664062 -13.363281 2.210938 -13.890625 2.921875 -14.265625 C 3.628906 -14.640625 4.460938 -14.828125 5.421875 -14.828125 C 6.597656 -14.828125 7.53125 -14.453125 8.21875 -13.703125 L 8.6875 -14.5625 L 11.3125 -14.5625 L 11.3125 -10.203125 L 8.5 -10.203125 C 8.238281 -10.753906 7.945312 -11.132812 7.625 -11.34375 C 7.3125 -11.550781 6.878906 -11.65625 6.328125 -11.65625 C 5.898438 -11.65625 5.570312 -11.582031 5.34375 -11.4375 C 5.113281 -11.289062 5 -11.082031 5 -10.8125 C 5 -10.53125 5.160156 -10.3125 5.484375 -10.15625 C 5.816406 -10 6.289062 -9.851562 6.90625 -9.71875 C 7.988281 -9.46875 8.90625 -9.15625 9.65625 -8.78125 C 10.414062 -8.414062 11.023438 -7.894531 11.484375 -7.21875 C 11.941406 -6.539062 12.171875 -5.664062 12.171875 -4.59375 C 12.171875 -3.675781 11.976562 -2.847656 11.59375 -2.109375 C 11.21875 -1.378906 10.675781 -0.800781 9.96875 -0.375 C 9.257812 0.0507812 8.453125 0.265625 7.546875 0.265625 Z M 7.546875 0.265625 "/></g></g></g><g fill="#ffffff" fill-opacity="1"><g transform="translate(271.642087, 183.750106)"><g><path d="M 1.171875 -3.21875 L 2.640625 -3.21875 L 2.640625 -11.328125 L 1.171875 -11.328125 L 1.171875 -14.546875 L 8.484375 -14.546875 L 8.484375 -11.328125 L 7.3125 -11.328125 L 7.3125 -8.015625 L 9.734375 -11.328125 L 9.734375 -14.546875 L 15.421875 -14.546875 L 15.421875 -11.328125 L 14.171875 -11.328125 L 11.265625 -7.8125 L 11.265625 -7.671875 C 12.253906 -7.671875 13.03125 -7.5 13.59375 -7.15625 C 14.15625 -6.820312 14.4375 -6.238281 14.4375 -5.40625 L 14.4375 -3.9375 C 14.4375 -3.75 14.488281 -3.582031 14.59375 -3.4375 C 14.695312 -3.289062 14.84375 -3.21875 15.03125 -3.21875 L 16.078125 -3.21875 L 16.078125 0 L 12.734375 0 C 10.679688 0 9.65625 -0.9375 9.65625 -2.8125 L 9.65625 -4.40625 C 9.65625 -4.707031 9.554688 -5.007812 9.359375 -5.3125 C 9.160156 -5.613281 8.921875 -5.765625 8.640625 -5.765625 L 7.3125 -5.765625 L 7.3125 -3.21875 L 8.78125 -3.21875 L 8.78125 0 L 1.171875 0 Z M 1.171875 -3.21875 "/></g></g></g><g fill="#ffffff" fill-opacity="1"><g transform="translate(289.784959, 183.750106)"><g><path d="M 1.171875 0 L 1.171875 -3.21875 L 2.640625 -3.21875 L 2.640625 -11.328125 L 1.171875 -11.328125 L 1.171875 -14.546875 L 8.78125 -14.546875 L 8.78125 -11.328125 L 7.3125 -11.328125 L 7.3125 -3.21875 L 8.78125 -3.21875 L 8.78125 0 Z M 1.171875 0 "/></g></g></g><g fill="#ffffff" fill-opacity="1"><g transform="translate(300.745869, 183.750106)"><g><path d="M 0.75 0 L 0.75 -3.28125 L 2.234375 -3.28125 L 2.234375 -11.34375 L 0.78125 -11.34375 L 0.78125 -14.5625 L 7.5 -14.5625 L 12.0625 -5.921875 L 12.0625 -11.328125 L 10.59375 -11.328125 L 10.59375 -14.546875 L 16.421875 -14.546875 L 16.421875 -11.328125 L 14.96875 -11.328125 L 14.96875 0 L 9.4375 0 L 5.109375 -8.03125 L 5.109375 -3.28125 L 6.5625 -3.28125 L 6.5625 0 Z M 0.75 0 "/></g></g></g><g fill="#ffffff" fill-opacity="1"><g transform="translate(319.225398, 183.750106)"><g><path d="M 8.703125 0.265625 C 7.222656 0.265625 5.867188 -0.0078125 4.640625 -0.5625 C 3.410156 -1.113281 2.425781 -1.96875 1.6875 -3.125 C 0.945312 -4.28125 0.578125 -5.738281 0.578125 -7.5 C 0.578125 -8.90625 0.867188 -10.160156 1.453125 -11.265625 C 2.035156 -12.378906 2.878906 -13.25 3.984375 -13.875 C 5.085938 -14.507812 6.382812 -14.828125 7.875 -14.828125 C 8.507812 -14.828125 9.125 -14.71875 9.71875 -14.5 C 10.320312 -14.289062 10.800781 -13.984375 11.15625 -13.578125 L 11.453125 -14.546875 L 14.625 -14.546875 L 14.625 -9.171875 L 11.796875 -9.171875 C 11.609375 -9.941406 11.242188 -10.523438 10.703125 -10.921875 C 10.171875 -11.316406 9.609375 -11.515625 9.015625 -11.515625 C 8.046875 -11.515625 7.273438 -11.15625 6.703125 -10.4375 C 6.140625 -9.726562 5.859375 -8.75 5.859375 -7.5 C 5.859375 -6.238281 6.140625 -5.25 6.703125 -4.53125 C 7.265625 -3.820312 8.054688 -3.46875 9.078125 -3.46875 C 9.335938 -3.46875 9.597656 -3.488281 9.859375 -3.53125 C 10.128906 -3.582031 10.34375 -3.632812 10.5 -3.6875 C 10.664062 -3.75 10.769531 -3.785156 10.8125 -3.796875 L 10.8125 -5.09375 L 9.0625 -5.09375 L 9.0625 -7.8125 L 14.921875 -7.8125 L 14.921875 -1.265625 C 13.984375 -0.773438 12.976562 -0.394531 11.90625 -0.125 C 10.832031 0.132812 9.765625 0.265625 8.703125 0.265625 Z M 8.703125 0.265625 "/></g></g></g><g fill="#ffffff" fill-opacity="1"><g transform="translate(170.505235, 203.250104)"><g><path d="M 0.578125 0 L 0.578125 -3.21875 L 2.34375 -3.21875 L 2.34375 -11.328125 L 0.578125 -11.328125 L 0.578125 -14.546875 L 8.421875 -14.546875 L 11.25 -7.546875 L 14.03125 -14.546875 L 21.359375 -14.546875 L 21.359375 -11.328125 L 19.59375 -11.328125 L 19.59375 -3.21875 L 21.359375 -3.21875 L 21.359375 0 L 13.734375 0 L 13.734375 -3.21875 L 14.921875 -3.21875 L 14.921875 -8.640625 L 11.703125 0 L 9.0625 0 L 5.265625 -8.859375 L 5.265625 -3.21875 L 6.71875 -3.21875 L 6.71875 0 Z M 0.578125 0 "/></g></g></g><g fill="#ffffff" fill-opacity="1"><g transform="translate(193.735342, 203.250104)"><g><path d="M 0.296875 0 L 0.296875 -3.21875 L 1.734375 -3.21875 L 4.25 -11.328125 L 2.34375 -11.328125 L 2.34375 -14.546875 L 11.40625 -14.546875 L 14.640625 -3.21875 L 16.078125 -3.21875 L 16.078125 0 L 7.90625 0 L 7.90625 -3.21875 L 9.078125 -3.21875 L 8.6875 -4.765625 L 5.390625 -4.765625 L 4.984375 -3.21875 L 6.71875 -3.21875 L 6.71875 0 Z M 5.859375 -6.984375 L 8.25 -6.984375 L 7.1875 -11.4375 Z M 5.859375 -6.984375 "/></g></g></g><g fill="#ffffff" fill-opacity="1"><g transform="translate(211.373237, 203.250104)"><g><path d="M 7.546875 0.265625 C 6.796875 0.265625 6.195312 0.175781 5.75 0 C 5.3125 -0.164062 4.835938 -0.445312 4.328125 -0.84375 L 4 0 L 1.046875 0 L 1.046875 -4.453125 L 3.984375 -4.453125 C 4.171875 -3.941406 4.460938 -3.578125 4.859375 -3.359375 C 5.253906 -3.148438 5.738281 -3.046875 6.3125 -3.046875 C 6.65625 -3.046875 6.953125 -3.117188 7.203125 -3.265625 C 7.453125 -3.410156 7.578125 -3.601562 7.578125 -3.84375 C 7.578125 -4.132812 7.445312 -4.351562 7.1875 -4.5 C 6.9375 -4.65625 6.582031 -4.796875 6.125 -4.921875 C 4.945312 -5.242188 3.976562 -5.59375 3.21875 -5.96875 C 2.46875 -6.34375 1.863281 -6.878906 1.40625 -7.578125 C 0.945312 -8.273438 0.71875 -9.195312 0.71875 -10.34375 C 0.71875 -11.238281 0.90625 -12.019531 1.28125 -12.6875 C 1.664062 -13.363281 2.210938 -13.890625 2.921875 -14.265625 C 3.628906 -14.640625 4.460938 -14.828125 5.421875 -14.828125 C 6.597656 -14.828125 7.53125 -14.453125 8.21875 -13.703125 L 8.6875 -14.5625 L 11.3125 -14.5625 L 11.3125 -10.203125 L 8.5 -10.203125 C 8.238281 -10.753906 7.945312 -11.132812 7.625 -11.34375 C 7.3125 -11.550781 6.878906 -11.65625 6.328125 -11.65625 C 5.898438 -11.65625 5.570312 -11.582031 5.34375 -11.4375 C 5.113281 -11.289062 5 -11.082031 5 -10.8125 C 5 -10.53125 5.160156 -10.3125 5.484375 -10.15625 C 5.816406 -10 6.289062 -9.851562 6.90625 -9.71875 C 7.988281 -9.46875 8.90625 -9.15625 9.65625 -8.78125 C 10.414062 -8.414062 11.023438 -7.894531 11.484375 -7.21875 C 11.941406 -6.539062 12.171875 -5.664062 12.171875 -4.59375 C 12.171875 -3.675781 11.976562 -2.847656 11.59375 -2.109375 C 11.21875 -1.378906 10.675781 -0.800781 9.96875 -0.375 C 9.257812 0.0507812 8.453125 0.265625 7.546875 0.265625 Z M 7.546875 0.265625 "/></g></g></g><g fill="#ffffff" fill-opacity="1"><g transform="translate(225.794208, 203.250104)"><g><path d="M 7.953125 0.265625 C 6.609375 0.265625 5.375 -0.015625 4.25 -0.578125 C 3.132812 -1.148438 2.242188 -2.003906 1.578125 -3.140625 C 0.910156 -4.285156 0.578125 -5.691406 0.578125 -7.359375 C 0.578125 -8.753906 0.828125 -10.015625 1.328125 -11.140625 C 1.835938 -12.273438 2.582031 -13.171875 3.5625 -13.828125 C 4.539062 -14.492188 5.722656 -14.828125 7.109375 -14.828125 C 7.828125 -14.828125 8.460938 -14.660156 9.015625 -14.328125 C 9.578125 -13.992188 9.984375 -13.570312 10.234375 -13.0625 L 10.609375 -14.546875 L 13.453125 -14.546875 L 13.453125 -8.578125 L 10.53125 -8.578125 L 10.53125 -8.875 C 10.53125 -9.644531 10.351562 -10.273438 10 -10.765625 C 9.644531 -11.265625 9.117188 -11.515625 8.421875 -11.515625 C 7.953125 -11.515625 7.519531 -11.332031 7.125 -10.96875 C 6.726562 -10.601562 6.414062 -10.128906 6.1875 -9.546875 C 5.96875 -8.960938 5.859375 -8.359375 5.859375 -7.734375 C 5.859375 -6.503906 6.160156 -5.539062 6.765625 -4.84375 C 7.378906 -4.15625 8.21875 -3.8125 9.28125 -3.8125 C 10.03125 -3.8125 10.722656 -3.9375 11.359375 -4.1875 C 12.003906 -4.4375 12.535156 -4.707031 12.953125 -5 L 13.15625 -4.828125 L 13.15625 -0.9375 C 12.382812 -0.488281 11.566406 -0.175781 10.703125 0 C 9.847656 0.175781 8.929688 0.265625 7.953125 0.265625 Z M 7.953125 0.265625 "/></g></g></g><g fill="#ffffff" fill-opacity="1"><g transform="translate(241.486986, 203.250104)"><g><path d="M 7.96875 0.265625 C 5.800781 0.265625 4.238281 -0.300781 3.28125 -1.4375 C 2.332031 -2.570312 1.859375 -4.238281 1.859375 -6.4375 L 1.859375 -11.328125 L 0.375 -11.328125 L 0.375 -14.546875 L 8.3125 -14.546875 L 8.3125 -11.328125 L 6.96875 -11.328125 L 6.96875 -5.203125 C 6.96875 -4.609375 7.113281 -4.117188 7.40625 -3.734375 C 7.695312 -3.347656 8.15625 -3.15625 8.78125 -3.15625 C 9.300781 -3.15625 9.710938 -3.3125 10.015625 -3.625 C 10.328125 -3.9375 10.484375 -4.363281 10.484375 -4.90625 L 10.484375 -11.328125 L 8.984375 -11.328125 L 8.984375 -14.546875 L 14.953125 -14.546875 L 14.953125 -11.328125 L 13.546875 -11.328125 L 13.546875 -5.03125 C 13.546875 -3.289062 13.035156 -1.972656 12.015625 -1.078125 C 10.992188 -0.179688 9.644531 0.265625 7.96875 0.265625 Z M 7.96875 0.265625 "/></g></g></g><g fill="#ffffff" fill-opacity="1"><g transform="translate(258.50768, 203.250104)"><g><path d="M 1.171875 0 L 1.171875 -3.28125 L 2.640625 -3.28125 L 2.640625 -11.328125 L 1.171875 -11.328125 L 1.171875 -14.546875 L 8.78125 -14.546875 L 8.78125 -11.328125 L 7.3125 -11.328125 L 7.3125 -3.28125 L 9.65625 -3.28125 L 10.53125 -6.484375 L 12.859375 -6.484375 L 12.859375 0 Z M 1.171875 0 "/></g></g></g><g fill="#ffffff" fill-opacity="1"><g transform="translate(273.190489, 203.250104)"><g><path d="M 1.171875 0 L 1.171875 -3.21875 L 2.640625 -3.21875 L 2.640625 -11.328125 L 1.171875 -11.328125 L 1.171875 -14.546875 L 8.78125 -14.546875 L 8.78125 -11.328125 L 7.3125 -11.328125 L 7.3125 -3.21875 L 8.78125 -3.21875 L 8.78125 0 Z M 1.171875 0 "/></g></g></g><g fill="#ffffff" fill-opacity="1"><g transform="translate(284.151399, 203.250104)"><g><path d="M 0.75 0 L 0.75 -3.28125 L 2.234375 -3.28125 L 2.234375 -11.34375 L 0.78125 -11.34375 L 0.78125 -14.5625 L 7.5 -14.5625 L 12.0625 -5.921875 L 12.0625 -11.328125 L 10.59375 -11.328125 L 10.59375 -14.546875 L 16.421875 -14.546875 L 16.421875 -11.328125 L 14.96875 -11.328125 L 14.96875 0 L 9.4375 0 L 5.109375 -8.03125 L 5.109375 -3.28125 L 6.5625 -3.28125 L 6.5625 0 Z M 0.75 0 "/></g></g></g><g fill="#ffffff" fill-opacity="1"><g transform="translate(302.630929, 203.250104)"><g><path d="M 1.171875 0 L 1.171875 -3.21875 L 2.640625 -3.21875 L 2.640625 -11.328125 L 1.171875 -11.328125 L 1.171875 -14.546875 L 8.78125 -14.546875 L 8.78125 -11.328125 L 7.3125 -11.328125 L 7.3125 -3.21875 L 8.78125 -3.21875 L 8.78125 0 Z M 1.171875 0 "/></g></g></g><g fill="#ffffff" fill-opacity="1"><g transform="translate(313.591839, 203.250104)"><g><path d="M 3.328125 0 L 3.328125 -3.296875 L 4.828125 -3.296875 L 4.828125 -11.328125 L 3.53125 -11.328125 L 3.140625 -8.8125 L 0.578125 -8.8125 L 0.578125 -14.546875 L 14.265625 -14.546875 L 14.265625 -8.8125 L 11.703125 -8.8125 L 11.3125 -11.328125 L 9.984375 -11.328125 L 9.984375 -3.296875 L 11.46875 -3.296875 L 11.46875 0 Z M 3.328125 0 "/></g></g></g><g fill="#ffffff" fill-opacity="1"><g transform="translate(330.10755, 203.250104)"><g><path d="M 3.8125 0 L 3.8125 -3.28125 L 5.21875 -3.28125 L 5.21875 -5.953125 L 1.390625 -11.328125 L 0.359375 -11.328125 L 0.359375 -14.546875 L 8.140625 -14.546875 L 8.140625 -11.328125 L 7.3125 -11.328125 L 8.984375 -8.890625 L 10.296875 -11.328125 L 8.96875 -11.328125 L 8.96875 -14.546875 L 14.78125 -14.546875 L 14.78125 -11.328125 L 13.140625 -11.328125 L 10.3125 -6.4375 L 10.3125 -3.28125 L 11.75 -3.28125 L 11.75 0 Z M 3.8125 0 "/></g></g></g></svg>